M48
; DRILL file {KiCad (6.0.1)} date Wed Jan 26 16:15:47 2022
; FORMAT={-:-/ absolute / metric / decimal}
; #@! TF.CreationDate,2022-01-26T16:15:47+01:00
; #@! TF.GenerationSoftware,Kicad,Pcbnew,(6.0.1)
; #@! TF.FileFunction,Plated,1,2,PTH
FMAT,2
METRIC
; #@! TA.AperFunction,Plated,PTH,ViaDrill
T1C0.400
; #@! TA.AperFunction,Plated,PTH,ViaDrill
T2C0.800
; #@! TA.AperFunction,Plated,PTH,ComponentDrill
T3C2.000
%
G90
G05
T1
X21.149Y79.423
X21.149Y75.359
X21.149Y73.327
X21.149Y63.923
X21.149Y59.859
X21.149Y57.827
X21.149Y48.423
X21.149Y44.359
X21.149Y42.327
X21.149Y32.923
X21.149Y28.859
X21.149Y26.827
X21.149Y17.423
X21.149Y13.359
X21.149Y11.327
X27.977Y77.264
X27.977Y61.764
X27.977Y46.264
X27.977Y30.764
X27.977Y15.264
X69.149Y79.423
X69.149Y75.359
X69.149Y73.327
X69.149Y63.923
X69.149Y59.859
X69.149Y57.827
X69.149Y48.423
X69.149Y44.359
X69.149Y42.327
X69.149Y32.923
X69.149Y28.859
X69.149Y26.827
X69.149Y17.423
X69.149Y13.359
X69.149Y11.327
X75.977Y77.264
X75.977Y61.764
X75.977Y46.264
X75.977Y30.764
X75.977Y15.264
T2
X8.797Y71.25
X8.797Y55.75
X8.797Y40.25
X8.797Y24.75
X8.797Y9.25
X13.499Y77.01
X13.499Y61.51
X13.499Y46.01
X13.499Y30.51
X13.499Y15.01
X56.797Y71.25
X56.797Y55.75
X56.797Y40.25
X56.797Y24.75
X56.797Y9.25
X61.499Y77.01
X61.499Y61.51
X61.499Y46.01
X61.499Y30.51
X61.499Y15.01
T3
X3.045Y71.295
X3.045Y55.795
X3.045Y40.295
X3.045Y24.795
X3.045Y9.295
X14.545Y71.295
X14.545Y55.795
X14.545Y40.295
X14.545Y24.795
X14.545Y9.295
X27.215Y79.55
X27.215Y71.93
X27.215Y64.05
X27.215Y56.43
X27.215Y48.55
X27.215Y40.93
X27.215Y33.05
X27.215Y25.43
X27.215Y17.55
X27.215Y9.93
X34.835Y71.93
X34.835Y56.43
X34.835Y40.93
X34.835Y25.43
X34.835Y9.93
X37.375Y79.55
X37.375Y64.05
X37.375Y48.55
X37.375Y33.05
X37.375Y17.55
X39.915Y71.93
X39.915Y56.43
X39.915Y40.93
X39.915Y25.43
X39.915Y9.93
X42.455Y79.55
X42.455Y64.05
X42.455Y48.55
X42.455Y33.05
X42.455Y17.55
X51.045Y71.295
X51.045Y55.795
X51.045Y40.295
X51.045Y24.795
X51.045Y9.295
X62.545Y71.295
X62.545Y55.795
X62.545Y40.295
X62.545Y24.795
X62.545Y9.295
X75.215Y79.55
X75.215Y71.93
X75.215Y64.05
X75.215Y56.43
X75.215Y48.55
X75.215Y40.93
X75.215Y33.05
X75.215Y25.43
X75.215Y17.55
X75.215Y9.93
X82.835Y71.93
X82.835Y56.43
X82.835Y40.93
X82.835Y25.43
X82.835Y9.93
X85.375Y79.55
X85.375Y64.05
X85.375Y48.55
X85.375Y33.05
X85.375Y17.55
X87.915Y71.93
X87.915Y56.43
X87.915Y40.93
X87.915Y25.43
X87.915Y9.93
X90.455Y79.55
X90.455Y64.05
X90.455Y48.55
X90.455Y33.05
X90.455Y17.55
T0
M30
