M48
; DRILL file {KiCad (6.0.4)} date Thu Apr 21 21:07:12 2022
; FORMAT={-:-/ absolute / metric / decimal}
; #@! TF.CreationDate,2022-04-21T21:07:12+02:00
; #@! TF.GenerationSoftware,Kicad,Pcbnew,(6.0.4)
; #@! TF.FileFunction,NonPlated,1,2,NPTH
FMAT,2
METRIC
; #@! TA.AperFunction,NonPlated,NPTH,ComponentDrill
T1C0.500
; #@! TA.AperFunction,NonPlated,NPTH,ComponentDrill
T2C2.000
%
G90
G05
T1
X17.8Y84.75
X17.8Y82.25
X17.8Y69.25
X17.8Y66.75
X17.8Y53.75
X17.8Y51.25
X17.8Y38.25
X17.8Y35.75
X17.8Y22.75
X17.8Y20.25
X17.8Y7.25
X17.8Y4.75
X18.8Y84.75
X18.8Y82.25
X18.8Y69.25
X18.8Y66.75
X18.8Y53.75
X18.8Y51.25
X18.8Y38.25
X18.8Y35.75
X18.8Y22.75
X18.8Y20.25
X18.8Y7.25
X18.8Y4.75
X19.8Y84.75
X19.8Y82.25
X19.8Y69.25
X19.8Y66.75
X19.8Y53.75
X19.8Y51.25
X19.8Y38.25
X19.8Y35.75
X19.8Y22.75
X19.8Y20.25
X19.8Y7.25
X19.8Y4.75
X20.8Y84.75
X20.8Y82.25
X20.8Y69.25
X20.8Y66.75
X20.8Y53.75
X20.8Y51.25
X20.8Y38.25
X20.8Y35.75
X20.8Y22.75
X20.8Y20.25
X20.8Y7.25
X20.8Y4.75
X21.8Y84.75
X21.8Y82.25
X21.8Y69.25
X21.8Y66.75
X21.8Y53.75
X21.8Y51.25
X21.8Y38.25
X21.8Y35.75
X21.8Y22.75
X21.8Y20.25
X21.8Y7.25
X21.8Y4.75
X45.75Y77.75
X45.75Y76.75
X45.75Y75.75
X45.75Y74.75
X45.75Y73.75
X45.75Y62.25
X45.75Y61.25
X45.75Y60.25
X45.75Y59.25
X45.75Y58.25
X45.75Y46.75
X45.75Y45.75
X45.75Y44.75
X45.75Y43.75
X45.75Y42.75
X45.75Y31.25
X45.75Y30.25
X45.75Y29.25
X45.75Y28.25
X45.75Y27.25
X45.75Y15.75
X45.75Y14.75
X45.75Y13.75
X45.75Y12.75
X45.75Y11.75
X48.25Y77.75
X48.25Y76.75
X48.25Y75.75
X48.25Y74.75
X48.25Y73.75
X48.25Y62.25
X48.25Y61.25
X48.25Y60.25
X48.25Y59.25
X48.25Y58.25
X48.25Y46.75
X48.25Y45.75
X48.25Y44.75
X48.25Y43.75
X48.25Y42.75
X48.25Y31.25
X48.25Y30.25
X48.25Y29.25
X48.25Y28.25
X48.25Y27.25
X48.25Y15.75
X48.25Y14.75
X48.25Y13.75
X48.25Y12.75
X48.25Y11.75
X65.8Y84.75
X65.8Y82.25
X65.8Y69.25
X65.8Y66.75
X65.8Y53.75
X65.8Y51.25
X65.8Y38.25
X65.8Y35.75
X65.8Y22.75
X65.8Y20.25
X65.8Y7.25
X65.8Y4.75
X66.8Y84.75
X66.8Y82.25
X66.8Y69.25
X66.8Y66.75
X66.8Y53.75
X66.8Y51.25
X66.8Y38.25
X66.8Y35.75
X66.8Y22.75
X66.8Y20.25
X66.8Y7.25
X66.8Y4.75
X67.8Y84.75
X67.8Y82.25
X67.8Y69.25
X67.8Y66.75
X67.8Y53.75
X67.8Y51.25
X67.8Y38.25
X67.8Y35.75
X67.8Y22.75
X67.8Y20.25
X67.8Y7.25
X67.8Y4.75
X68.8Y84.75
X68.8Y82.25
X68.8Y69.25
X68.8Y66.75
X68.8Y53.75
X68.8Y51.25
X68.8Y38.25
X68.8Y35.75
X68.8Y22.75
X68.8Y20.25
X68.8Y7.25
X68.8Y4.75
X69.8Y84.75
X69.8Y82.25
X69.8Y69.25
X69.8Y66.75
X69.8Y53.75
X69.8Y51.25
X69.8Y38.25
X69.8Y35.75
X69.8Y22.75
X69.8Y20.25
X69.8Y7.25
X69.8Y4.75
T2
X6.045Y71.295
X6.045Y55.795
X6.045Y40.295
X6.045Y24.795
X6.045Y9.295
X11.545Y71.295
X11.545Y55.795
X11.545Y40.295
X11.545Y24.795
X11.545Y9.295
X24.675Y79.55
X24.675Y71.93
X24.675Y64.05
X24.675Y56.43
X24.675Y48.55
X24.675Y40.93
X24.675Y33.05
X24.675Y25.43
X24.675Y17.55
X24.675Y9.93
X29.755Y79.55
X29.755Y71.93
X29.755Y64.05
X29.755Y56.43
X29.755Y48.55
X29.755Y40.93
X29.755Y33.05
X29.755Y25.43
X29.755Y17.55
X29.755Y9.93
X32.295Y79.55
X32.295Y71.93
X32.295Y64.05
X32.295Y56.43
X32.295Y48.55
X32.295Y40.93
X32.295Y33.05
X32.295Y25.43
X32.295Y17.55
X32.295Y9.93
X34.835Y79.55
X34.835Y64.05
X34.835Y48.55
X34.835Y33.05
X34.835Y17.55
X37.375Y71.93
X37.375Y56.43
X37.375Y40.93
X37.375Y25.43
X37.375Y9.93
X39.915Y79.55
X39.915Y64.05
X39.915Y48.55
X39.915Y33.05
X39.915Y17.55
X42.455Y71.93
X42.455Y56.43
X42.455Y40.93
X42.455Y25.43
X42.455Y9.93
X54.045Y71.295
X54.045Y55.795
X54.045Y40.295
X54.045Y24.795
X54.045Y9.295
X59.545Y71.295
X59.545Y55.795
X59.545Y40.295
X59.545Y24.795
X59.545Y9.295
X72.675Y79.55
X72.675Y71.93
X72.675Y64.05
X72.675Y56.43
X72.675Y48.55
X72.675Y40.93
X72.675Y33.05
X72.675Y25.43
X72.675Y17.55
X72.675Y9.93
X77.755Y79.55
X77.755Y71.93
X77.755Y64.05
X77.755Y56.43
X77.755Y48.55
X77.755Y40.93
X77.755Y33.05
X77.755Y25.43
X77.755Y17.55
X77.755Y9.93
X80.295Y79.55
X80.295Y71.93
X80.295Y64.05
X80.295Y56.43
X80.295Y48.55
X80.295Y40.93
X80.295Y33.05
X80.295Y25.43
X80.295Y17.55
X80.295Y9.93
X82.835Y79.55
X82.835Y64.05
X82.835Y48.55
X82.835Y33.05
X82.835Y17.55
X85.375Y71.93
X85.375Y56.43
X85.375Y40.93
X85.375Y25.43
X85.375Y9.93
X87.915Y79.55
X87.915Y64.05
X87.915Y48.55
X87.915Y33.05
X87.915Y17.55
X90.455Y71.93
X90.455Y56.43
X90.455Y40.93
X90.455Y25.43
X90.455Y9.93
T0
M30
