G04 #@! TF.GenerationSoftware,KiCad,Pcbnew,(6.0.4)*
G04 #@! TF.CreationDate,2022-04-21T21:07:09+02:00*
G04 #@! TF.ProjectId,atari-junior-av-mod,61746172-692d-46a7-956e-696f722d6176,rev?*
G04 #@! TF.SameCoordinates,PX5edde38PY83caa5c*
G04 #@! TF.FileFunction,Soldermask,Bot*
G04 #@! TF.FilePolarity,Negative*
%FSLAX46Y46*%
G04 Gerber Fmt 4.6, Leading zero omitted, Abs format (unit mm)*
G04 Created by KiCad (PCBNEW (6.0.4)) date 2022-04-21 21:07:09*
%MOMM*%
%LPD*%
G01*
G04 APERTURE LIST*
%ADD10C,2.400000*%
%ADD11C,0.500000*%
G04 APERTURE END LIST*
D10*
G04 #@! TO.C,H13*
X11545000Y71295000D03*
G04 #@! TD*
G04 #@! TO.C,Pad8*
X27215000Y33050000D03*
G04 #@! TD*
D11*
G04 #@! TO.C,mouse-bite-1mm-slot*
X20800000Y22750000D03*
X17800000Y22750000D03*
X21800000Y20250000D03*
X18800000Y20250000D03*
X20800000Y20250000D03*
X17800000Y20250000D03*
X19800000Y22750000D03*
X21800000Y22750000D03*
X19800000Y20250000D03*
X18800000Y22750000D03*
G04 #@! TD*
D10*
G04 #@! TO.C,H7*
X42455000Y25430000D03*
G04 #@! TD*
G04 #@! TO.C,H11*
X72675000Y56430000D03*
G04 #@! TD*
G04 #@! TO.C,Pad7*
X37375000Y64050000D03*
G04 #@! TD*
G04 #@! TO.C,Pad9*
X27215000Y40930000D03*
G04 #@! TD*
G04 #@! TO.C,Pad10*
X62545000Y71295000D03*
G04 #@! TD*
G04 #@! TO.C,H4*
X82835000Y48550000D03*
G04 #@! TD*
G04 #@! TO.C,Pad8*
X75215000Y33050000D03*
G04 #@! TD*
D11*
G04 #@! TO.C,mouse-bite-1mm-slot*
X19800000Y51250000D03*
X18800000Y51250000D03*
X17800000Y53750000D03*
X18800000Y53750000D03*
X17800000Y51250000D03*
X21800000Y51250000D03*
X20800000Y51250000D03*
X19800000Y53750000D03*
X21800000Y53750000D03*
X20800000Y53750000D03*
G04 #@! TD*
D10*
G04 #@! TO.C,Pad7*
X85375000Y17550000D03*
G04 #@! TD*
G04 #@! TO.C,Pad11*
X42455000Y64050000D03*
G04 #@! TD*
G04 #@! TO.C,Pad4*
X51045000Y24795000D03*
G04 #@! TD*
G04 #@! TO.C,Pad4*
X3045000Y9295000D03*
G04 #@! TD*
G04 #@! TO.C,Pad7*
X85375000Y33050000D03*
G04 #@! TD*
D11*
G04 #@! TO.C,mouse-bite-1mm-slot*
X18800000Y84750000D03*
X20800000Y82250000D03*
X21800000Y82250000D03*
X17800000Y84750000D03*
X18800000Y82250000D03*
X19800000Y84750000D03*
X20800000Y84750000D03*
X17800000Y82250000D03*
X21800000Y84750000D03*
X19800000Y82250000D03*
G04 #@! TD*
D10*
G04 #@! TO.C,Pad10*
X62545000Y24795000D03*
G04 #@! TD*
G04 #@! TO.C,Pad9*
X27215000Y25430000D03*
G04 #@! TD*
G04 #@! TO.C,Pad5*
X87915000Y25430000D03*
G04 #@! TD*
G04 #@! TO.C,Pad4*
X3045000Y24795000D03*
G04 #@! TD*
G04 #@! TO.C,Pad8*
X75215000Y17550000D03*
G04 #@! TD*
G04 #@! TO.C,Pad9*
X75215000Y9930000D03*
G04 #@! TD*
G04 #@! TO.C,Pad5*
X87915000Y40930000D03*
G04 #@! TD*
G04 #@! TO.C,Pad4*
X3045000Y55795000D03*
G04 #@! TD*
G04 #@! TO.C,H13*
X59545000Y71295000D03*
G04 #@! TD*
G04 #@! TO.C,H12*
X54045000Y55795000D03*
G04 #@! TD*
G04 #@! TO.C,Pad11*
X42455000Y48550000D03*
G04 #@! TD*
G04 #@! TO.C,Pad5*
X87915000Y9930000D03*
G04 #@! TD*
G04 #@! TO.C,Pad4*
X3045000Y71295000D03*
G04 #@! TD*
G04 #@! TO.C,H3*
X80295000Y64050000D03*
G04 #@! TD*
G04 #@! TO.C,H7*
X90455000Y56430000D03*
G04 #@! TD*
G04 #@! TO.C,H12*
X6045000Y9295000D03*
G04 #@! TD*
G04 #@! TO.C,H7*
X42455000Y9930000D03*
G04 #@! TD*
G04 #@! TO.C,H1*
X72675000Y79550000D03*
G04 #@! TD*
G04 #@! TO.C,Pad8*
X75215000Y79550000D03*
G04 #@! TD*
G04 #@! TO.C,Pad6*
X34835000Y9930000D03*
G04 #@! TD*
G04 #@! TO.C,H6*
X39915000Y48550000D03*
G04 #@! TD*
G04 #@! TO.C,H1*
X24675000Y79550000D03*
G04 #@! TD*
G04 #@! TO.C,H11*
X24675000Y56430000D03*
G04 #@! TD*
G04 #@! TO.C,H13*
X11545000Y55795000D03*
G04 #@! TD*
G04 #@! TO.C,Pad7*
X85375000Y64050000D03*
G04 #@! TD*
G04 #@! TO.C,Pad7*
X85375000Y48550000D03*
G04 #@! TD*
G04 #@! TO.C,H7*
X90455000Y71930000D03*
G04 #@! TD*
D11*
G04 #@! TO.C,mouse-bite-1mm-slot*
X18800000Y69250000D03*
X20800000Y66750000D03*
X18800000Y66750000D03*
X17800000Y69250000D03*
X20800000Y69250000D03*
X21800000Y66750000D03*
X21800000Y69250000D03*
X17800000Y66750000D03*
X19800000Y69250000D03*
X19800000Y66750000D03*
G04 #@! TD*
D10*
G04 #@! TO.C,Pad7*
X37375000Y33050000D03*
G04 #@! TD*
G04 #@! TO.C,H6*
X87915000Y79550000D03*
G04 #@! TD*
G04 #@! TO.C,H10*
X77755000Y40930000D03*
G04 #@! TD*
G04 #@! TO.C,H11*
X72675000Y40930000D03*
G04 #@! TD*
G04 #@! TO.C,H10*
X29755000Y9930000D03*
G04 #@! TD*
G04 #@! TO.C,H4*
X34835000Y17550000D03*
G04 #@! TD*
G04 #@! TO.C,H6*
X87915000Y64050000D03*
G04 #@! TD*
G04 #@! TO.C,Pad4*
X3045000Y40295000D03*
G04 #@! TD*
G04 #@! TO.C,H8*
X37375000Y71930000D03*
G04 #@! TD*
G04 #@! TO.C,Pad7*
X85375000Y79550000D03*
G04 #@! TD*
D11*
G04 #@! TO.C,mouse-bite-1mm-slot*
X21800000Y4750000D03*
X20800000Y4750000D03*
X21800000Y7250000D03*
X18800000Y4750000D03*
X17800000Y4750000D03*
X20800000Y7250000D03*
X18800000Y7250000D03*
X19800000Y7250000D03*
X19800000Y4750000D03*
X17800000Y7250000D03*
G04 #@! TD*
D10*
G04 #@! TO.C,Pad6*
X82835000Y25430000D03*
G04 #@! TD*
G04 #@! TO.C,H13*
X59545000Y55795000D03*
G04 #@! TD*
G04 #@! TO.C,H8*
X85375000Y71930000D03*
G04 #@! TD*
G04 #@! TO.C,H8*
X37375000Y56430000D03*
G04 #@! TD*
D11*
G04 #@! TO.C,mouse-bite-1mm-slot*
X48250000Y43750000D03*
X45750000Y43750000D03*
X45750000Y46750000D03*
X48250000Y44750000D03*
X48250000Y46750000D03*
X45750000Y42750000D03*
X48250000Y42750000D03*
X48250000Y45750000D03*
X45750000Y44750000D03*
X45750000Y45750000D03*
G04 #@! TD*
G04 #@! TO.C,mouse-bite-1mm-slot*
X68800000Y51250000D03*
X68800000Y53750000D03*
X66800000Y51250000D03*
X66800000Y53750000D03*
X65800000Y51250000D03*
X69800000Y51250000D03*
X65800000Y53750000D03*
X67800000Y51250000D03*
X69800000Y53750000D03*
X67800000Y53750000D03*
G04 #@! TD*
D10*
G04 #@! TO.C,H6*
X39915000Y79550000D03*
G04 #@! TD*
G04 #@! TO.C,H7*
X42455000Y56430000D03*
G04 #@! TD*
G04 #@! TO.C,H2*
X29755000Y17550000D03*
G04 #@! TD*
G04 #@! TO.C,H10*
X77755000Y56430000D03*
G04 #@! TD*
G04 #@! TO.C,H1*
X24675000Y17550000D03*
G04 #@! TD*
G04 #@! TO.C,H3*
X32295000Y79550000D03*
G04 #@! TD*
G04 #@! TO.C,H8*
X85375000Y56430000D03*
G04 #@! TD*
G04 #@! TO.C,H6*
X39915000Y64050000D03*
G04 #@! TD*
G04 #@! TO.C,H8*
X85375000Y25430000D03*
G04 #@! TD*
G04 #@! TO.C,H3*
X80295000Y33050000D03*
G04 #@! TD*
D11*
G04 #@! TO.C,mouse-bite-1mm-slot*
X65800000Y38250000D03*
X65800000Y35750000D03*
X68800000Y38250000D03*
X67800000Y35750000D03*
X66800000Y35750000D03*
X69800000Y38250000D03*
X68800000Y35750000D03*
X66800000Y38250000D03*
X69800000Y35750000D03*
X67800000Y38250000D03*
G04 #@! TD*
D10*
G04 #@! TO.C,Pad10*
X62545000Y40295000D03*
G04 #@! TD*
G04 #@! TO.C,H8*
X85375000Y9930000D03*
G04 #@! TD*
G04 #@! TO.C,H4*
X82835000Y33050000D03*
G04 #@! TD*
G04 #@! TO.C,Pad5*
X39915000Y56430000D03*
G04 #@! TD*
G04 #@! TO.C,H12*
X54045000Y71295000D03*
G04 #@! TD*
G04 #@! TO.C,H10*
X29755000Y40930000D03*
G04 #@! TD*
G04 #@! TO.C,H10*
X29755000Y71930000D03*
G04 #@! TD*
G04 #@! TO.C,H4*
X34835000Y64050000D03*
G04 #@! TD*
G04 #@! TO.C,H10*
X29755000Y56430000D03*
G04 #@! TD*
G04 #@! TO.C,H13*
X11545000Y9295000D03*
G04 #@! TD*
G04 #@! TO.C,H12*
X54045000Y40295000D03*
G04 #@! TD*
G04 #@! TO.C,H3*
X32295000Y64050000D03*
G04 #@! TD*
D11*
G04 #@! TO.C,mouse-bite-1mm-slot*
X67800000Y4750000D03*
X66800000Y7250000D03*
X66800000Y4750000D03*
X69800000Y7250000D03*
X65800000Y7250000D03*
X67800000Y7250000D03*
X68800000Y4750000D03*
X69800000Y4750000D03*
X65800000Y4750000D03*
X68800000Y7250000D03*
G04 #@! TD*
D10*
G04 #@! TO.C,Pad5*
X87915000Y71930000D03*
G04 #@! TD*
G04 #@! TO.C,H7*
X90455000Y25430000D03*
G04 #@! TD*
G04 #@! TO.C,H3*
X80295000Y17550000D03*
G04 #@! TD*
G04 #@! TO.C,H11*
X72675000Y9930000D03*
G04 #@! TD*
G04 #@! TO.C,H1*
X72675000Y17550000D03*
G04 #@! TD*
G04 #@! TO.C,H9*
X32295000Y71930000D03*
G04 #@! TD*
G04 #@! TO.C,H13*
X59545000Y24795000D03*
G04 #@! TD*
G04 #@! TO.C,Pad4*
X51045000Y71295000D03*
G04 #@! TD*
G04 #@! TO.C,H13*
X59545000Y40295000D03*
G04 #@! TD*
D11*
G04 #@! TO.C,mouse-bite-1mm-slot*
X48250000Y13750000D03*
X48250000Y12750000D03*
X45750000Y15750000D03*
X45750000Y13750000D03*
X45750000Y11750000D03*
X48250000Y14750000D03*
X48250000Y15750000D03*
X48250000Y11750000D03*
X45750000Y14750000D03*
X45750000Y12750000D03*
G04 #@! TD*
D10*
G04 #@! TO.C,H2*
X29755000Y48550000D03*
G04 #@! TD*
G04 #@! TO.C,H12*
X54045000Y24795000D03*
G04 #@! TD*
G04 #@! TO.C,H9*
X80295000Y56430000D03*
G04 #@! TD*
G04 #@! TO.C,Pad6*
X82835000Y71930000D03*
G04 #@! TD*
G04 #@! TO.C,Pad11*
X42455000Y79550000D03*
G04 #@! TD*
G04 #@! TO.C,H2*
X77755000Y48550000D03*
G04 #@! TD*
G04 #@! TO.C,H7*
X90455000Y40930000D03*
G04 #@! TD*
G04 #@! TO.C,H8*
X37375000Y25430000D03*
G04 #@! TD*
G04 #@! TO.C,H9*
X80295000Y71930000D03*
G04 #@! TD*
G04 #@! TO.C,H8*
X37375000Y40930000D03*
G04 #@! TD*
G04 #@! TO.C,H12*
X6045000Y55795000D03*
G04 #@! TD*
G04 #@! TO.C,H11*
X24675000Y71930000D03*
G04 #@! TD*
G04 #@! TO.C,Pad4*
X51045000Y40295000D03*
G04 #@! TD*
G04 #@! TO.C,Pad7*
X37375000Y17550000D03*
G04 #@! TD*
G04 #@! TO.C,Pad10*
X14545000Y71295000D03*
G04 #@! TD*
G04 #@! TO.C,H9*
X32295000Y56430000D03*
G04 #@! TD*
G04 #@! TO.C,Pad6*
X34835000Y40930000D03*
G04 #@! TD*
G04 #@! TO.C,H8*
X85375000Y40930000D03*
G04 #@! TD*
G04 #@! TO.C,Pad11*
X90455000Y33050000D03*
G04 #@! TD*
G04 #@! TO.C,Pad8*
X75215000Y48550000D03*
G04 #@! TD*
G04 #@! TO.C,Pad5*
X39915000Y71930000D03*
G04 #@! TD*
G04 #@! TO.C,H9*
X32295000Y25430000D03*
G04 #@! TD*
G04 #@! TO.C,Pad10*
X14545000Y55795000D03*
G04 #@! TD*
G04 #@! TO.C,Pad6*
X82835000Y56430000D03*
G04 #@! TD*
G04 #@! TO.C,H1*
X72675000Y33050000D03*
G04 #@! TD*
G04 #@! TO.C,H6*
X39915000Y33050000D03*
G04 #@! TD*
G04 #@! TO.C,Pad8*
X27215000Y17550000D03*
G04 #@! TD*
G04 #@! TO.C,Pad5*
X39915000Y40930000D03*
G04 #@! TD*
G04 #@! TO.C,H7*
X90455000Y9930000D03*
G04 #@! TD*
G04 #@! TO.C,Pad6*
X34835000Y71930000D03*
G04 #@! TD*
G04 #@! TO.C,H1*
X24675000Y33050000D03*
G04 #@! TD*
G04 #@! TO.C,H1*
X72675000Y64050000D03*
G04 #@! TD*
D11*
G04 #@! TO.C,mouse-bite-1mm-slot*
X68800000Y66750000D03*
X67800000Y69250000D03*
X68800000Y69250000D03*
X67800000Y66750000D03*
X69800000Y66750000D03*
X66800000Y66750000D03*
X65800000Y69250000D03*
X65800000Y66750000D03*
X69800000Y69250000D03*
X66800000Y69250000D03*
G04 #@! TD*
D10*
G04 #@! TO.C,H10*
X77755000Y71930000D03*
G04 #@! TD*
G04 #@! TO.C,Pad11*
X90455000Y79550000D03*
G04 #@! TD*
G04 #@! TO.C,H10*
X29755000Y25430000D03*
G04 #@! TD*
G04 #@! TO.C,Pad5*
X39915000Y25430000D03*
G04 #@! TD*
G04 #@! TO.C,Pad4*
X51045000Y9295000D03*
G04 #@! TD*
G04 #@! TO.C,Pad10*
X62545000Y55795000D03*
G04 #@! TD*
G04 #@! TO.C,H12*
X6045000Y71295000D03*
G04 #@! TD*
G04 #@! TO.C,Pad11*
X90455000Y64050000D03*
G04 #@! TD*
G04 #@! TO.C,H11*
X72675000Y71930000D03*
G04 #@! TD*
G04 #@! TO.C,H12*
X54045000Y9295000D03*
G04 #@! TD*
G04 #@! TO.C,Pad5*
X87915000Y56430000D03*
G04 #@! TD*
G04 #@! TO.C,Pad10*
X14545000Y40295000D03*
G04 #@! TD*
G04 #@! TO.C,Pad9*
X27215000Y56430000D03*
G04 #@! TD*
G04 #@! TO.C,Pad11*
X90455000Y17550000D03*
G04 #@! TD*
G04 #@! TO.C,H3*
X32295000Y17550000D03*
G04 #@! TD*
D11*
G04 #@! TO.C,mouse-bite-1mm-slot*
X20800000Y38250000D03*
X21800000Y35750000D03*
X18800000Y38250000D03*
X18800000Y35750000D03*
X19800000Y35750000D03*
X21800000Y38250000D03*
X17800000Y35750000D03*
X17800000Y38250000D03*
X20800000Y35750000D03*
X19800000Y38250000D03*
G04 #@! TD*
D10*
G04 #@! TO.C,Pad9*
X27215000Y71930000D03*
G04 #@! TD*
G04 #@! TO.C,Pad9*
X27215000Y9930000D03*
G04 #@! TD*
G04 #@! TO.C,Pad6*
X82835000Y9930000D03*
G04 #@! TD*
G04 #@! TO.C,H11*
X72675000Y25430000D03*
G04 #@! TD*
G04 #@! TO.C,H7*
X42455000Y71930000D03*
G04 #@! TD*
G04 #@! TO.C,H2*
X77755000Y79550000D03*
G04 #@! TD*
G04 #@! TO.C,H3*
X80295000Y48550000D03*
G04 #@! TD*
G04 #@! TO.C,Pad8*
X27215000Y79550000D03*
G04 #@! TD*
G04 #@! TO.C,H2*
X29755000Y79550000D03*
G04 #@! TD*
G04 #@! TO.C,Pad10*
X14545000Y24795000D03*
G04 #@! TD*
G04 #@! TO.C,Pad9*
X75215000Y56430000D03*
G04 #@! TD*
G04 #@! TO.C,H4*
X82835000Y17550000D03*
G04 #@! TD*
G04 #@! TO.C,H4*
X34835000Y48550000D03*
G04 #@! TD*
G04 #@! TO.C,H3*
X32295000Y33050000D03*
G04 #@! TD*
D11*
G04 #@! TO.C,mouse-bite-1mm-slot*
X45750000Y75750000D03*
X48250000Y77750000D03*
X45750000Y77750000D03*
X45750000Y76750000D03*
X45750000Y74750000D03*
X48250000Y76750000D03*
X45750000Y73750000D03*
X48250000Y73750000D03*
X48250000Y75750000D03*
X48250000Y74750000D03*
G04 #@! TD*
D10*
G04 #@! TO.C,H1*
X72675000Y48550000D03*
G04 #@! TD*
G04 #@! TO.C,H2*
X29755000Y64050000D03*
G04 #@! TD*
G04 #@! TO.C,Pad9*
X75215000Y71930000D03*
G04 #@! TD*
G04 #@! TO.C,H2*
X77755000Y17550000D03*
G04 #@! TD*
G04 #@! TO.C,H11*
X24675000Y40930000D03*
G04 #@! TD*
G04 #@! TO.C,H7*
X42455000Y40930000D03*
G04 #@! TD*
G04 #@! TO.C,Pad8*
X75215000Y64050000D03*
G04 #@! TD*
G04 #@! TO.C,H11*
X24675000Y25430000D03*
G04 #@! TD*
G04 #@! TO.C,H1*
X24675000Y64050000D03*
G04 #@! TD*
G04 #@! TO.C,Pad6*
X34835000Y25430000D03*
G04 #@! TD*
G04 #@! TO.C,H12*
X6045000Y24795000D03*
G04 #@! TD*
G04 #@! TO.C,H10*
X77755000Y9930000D03*
G04 #@! TD*
G04 #@! TO.C,H2*
X77755000Y33050000D03*
G04 #@! TD*
D11*
G04 #@! TO.C,mouse-bite-1mm-slot*
X45750000Y31250000D03*
X45750000Y30250000D03*
X45750000Y28250000D03*
X48250000Y31250000D03*
X48250000Y28250000D03*
X48250000Y30250000D03*
X45750000Y27250000D03*
X48250000Y29250000D03*
X45750000Y29250000D03*
X48250000Y27250000D03*
G04 #@! TD*
D10*
G04 #@! TO.C,Pad11*
X42455000Y33050000D03*
G04 #@! TD*
G04 #@! TO.C,H2*
X29755000Y33050000D03*
G04 #@! TD*
G04 #@! TO.C,H9*
X80295000Y9930000D03*
G04 #@! TD*
G04 #@! TO.C,Pad7*
X37375000Y79550000D03*
G04 #@! TD*
G04 #@! TO.C,H9*
X80295000Y25430000D03*
G04 #@! TD*
G04 #@! TO.C,H2*
X77755000Y64050000D03*
G04 #@! TD*
D11*
G04 #@! TO.C,mouse-bite-1mm-slot4*
X65800000Y82250000D03*
X68800000Y82250000D03*
X67800000Y84750000D03*
X68800000Y84750000D03*
X66800000Y84750000D03*
X66800000Y82250000D03*
X65800000Y84750000D03*
X69800000Y84750000D03*
X67800000Y82250000D03*
X69800000Y82250000D03*
G04 #@! TD*
D10*
G04 #@! TO.C,H9*
X32295000Y9930000D03*
G04 #@! TD*
G04 #@! TO.C,H11*
X24675000Y9930000D03*
G04 #@! TD*
G04 #@! TO.C,Pad7*
X37375000Y48550000D03*
G04 #@! TD*
G04 #@! TO.C,H1*
X24675000Y48550000D03*
G04 #@! TD*
G04 #@! TO.C,Pad9*
X75215000Y25430000D03*
G04 #@! TD*
G04 #@! TO.C,H6*
X87915000Y48550000D03*
G04 #@! TD*
G04 #@! TO.C,H8*
X37375000Y9930000D03*
G04 #@! TD*
G04 #@! TO.C,Pad9*
X75215000Y40930000D03*
G04 #@! TD*
G04 #@! TO.C,H13*
X59545000Y9295000D03*
G04 #@! TD*
G04 #@! TO.C,H6*
X39915000Y17550000D03*
G04 #@! TD*
G04 #@! TO.C,H4*
X34835000Y79550000D03*
G04 #@! TD*
G04 #@! TO.C,Pad5*
X39915000Y9930000D03*
G04 #@! TD*
G04 #@! TO.C,Pad8*
X27215000Y64050000D03*
G04 #@! TD*
D11*
G04 #@! TO.C,mouse-bite-1mm-slot*
X48250000Y62250000D03*
X45750000Y59250000D03*
X48250000Y60250000D03*
X45750000Y58250000D03*
X48250000Y61250000D03*
X45750000Y61250000D03*
X45750000Y60250000D03*
X48250000Y59250000D03*
X45750000Y62250000D03*
X48250000Y58250000D03*
G04 #@! TD*
D10*
G04 #@! TO.C,H9*
X32295000Y40930000D03*
G04 #@! TD*
G04 #@! TO.C,H6*
X87915000Y33050000D03*
G04 #@! TD*
G04 #@! TO.C,H9*
X80295000Y40930000D03*
G04 #@! TD*
G04 #@! TO.C,H4*
X34835000Y33050000D03*
G04 #@! TD*
G04 #@! TO.C,H4*
X82835000Y64050000D03*
G04 #@! TD*
G04 #@! TO.C,Pad10*
X14545000Y9295000D03*
G04 #@! TD*
G04 #@! TO.C,Pad11*
X42455000Y17550000D03*
G04 #@! TD*
G04 #@! TO.C,Pad4*
X51045000Y55795000D03*
G04 #@! TD*
G04 #@! TO.C,H12*
X6045000Y40295000D03*
G04 #@! TD*
G04 #@! TO.C,H13*
X11545000Y24795000D03*
G04 #@! TD*
D11*
G04 #@! TO.C,mouse-bite-1mm-slot*
X67800000Y20250000D03*
X69800000Y22750000D03*
X65800000Y22750000D03*
X65800000Y20250000D03*
X66800000Y22750000D03*
X66800000Y20250000D03*
X67800000Y22750000D03*
X68800000Y20250000D03*
X68800000Y22750000D03*
X69800000Y20250000D03*
G04 #@! TD*
D10*
G04 #@! TO.C,H6*
X87915000Y17550000D03*
G04 #@! TD*
G04 #@! TO.C,Pad6*
X34835000Y56430000D03*
G04 #@! TD*
G04 #@! TO.C,H4*
X82835000Y79550000D03*
G04 #@! TD*
G04 #@! TO.C,H13*
X11545000Y40295000D03*
G04 #@! TD*
G04 #@! TO.C,H3*
X32295000Y48550000D03*
G04 #@! TD*
G04 #@! TO.C,Pad11*
X90455000Y48550000D03*
G04 #@! TD*
G04 #@! TO.C,Pad10*
X62545000Y9295000D03*
G04 #@! TD*
G04 #@! TO.C,H10*
X77755000Y25430000D03*
G04 #@! TD*
G04 #@! TO.C,Pad8*
X27215000Y48550000D03*
G04 #@! TD*
G04 #@! TO.C,Pad6*
X82835000Y40930000D03*
G04 #@! TD*
G04 #@! TO.C,H3*
X80295000Y79550000D03*
G04 #@! TD*
M02*
