G04 #@! TF.GenerationSoftware,KiCad,Pcbnew,(6.0.4)*
G04 #@! TF.CreationDate,2022-04-21T21:07:09+02:00*
G04 #@! TF.ProjectId,atari-junior-av-mod,61746172-692d-46a7-956e-696f722d6176,rev?*
G04 #@! TF.SameCoordinates,PX5edde38PY83caa5c*
G04 #@! TF.FileFunction,Copper,L2,Bot*
G04 #@! TF.FilePolarity,Positive*
%FSLAX46Y46*%
G04 Gerber Fmt 4.6, Leading zero omitted, Abs format (unit mm)*
G04 Created by KiCad (PCBNEW (6.0.4)) date 2022-04-21 21:07:09*
%MOMM*%
%LPD*%
G01*
G04 APERTURE LIST*
G04 #@! TA.AperFunction,ComponentPad*
%ADD10C,2.400000*%
G04 #@! TD*
G04 #@! TA.AperFunction,ViaPad*
%ADD11C,0.800000*%
G04 #@! TD*
G04 #@! TA.AperFunction,ViaPad*
%ADD12C,1.600000*%
G04 #@! TD*
G04 #@! TA.AperFunction,Conductor*
%ADD13C,0.250000*%
G04 #@! TD*
G04 #@! TA.AperFunction,Conductor*
%ADD14C,0.500000*%
G04 #@! TD*
G04 APERTURE END LIST*
D10*
G04 #@! TO.P,Pad8,1,Pin_1*
G04 #@! TO.N,Net-(JP1-Pad1)*
X27215000Y33050000D03*
G04 #@! TD*
G04 #@! TO.P,Pad7,1,Pin_1*
G04 #@! TO.N,Net-(JP1-Pad3)*
X37375000Y64050000D03*
G04 #@! TD*
G04 #@! TO.P,Pad9,1,Pin_1*
G04 #@! TO.N,Net-(JP2-Pad1)*
X27215000Y40930000D03*
G04 #@! TD*
G04 #@! TO.P,Pad10,1,Pin_1*
G04 #@! TO.N,/Color*
X62545000Y71295000D03*
G04 #@! TD*
G04 #@! TO.P,Pad8,1,Pin_1*
G04 #@! TO.N,Net-(JP1-Pad1)*
X75215000Y33050000D03*
G04 #@! TD*
G04 #@! TO.P,Pad7,1,Pin_1*
G04 #@! TO.N,Net-(JP1-Pad3)*
X85375000Y17550000D03*
G04 #@! TD*
G04 #@! TO.P,Pad11,1,Pin_1*
G04 #@! TO.N,GND*
X42455000Y64050000D03*
G04 #@! TD*
G04 #@! TO.P,Pad4,1,Pin_1*
G04 #@! TO.N,/Audio*
X51045000Y24795000D03*
G04 #@! TD*
G04 #@! TO.P,Pad4,1,Pin_1*
G04 #@! TO.N,/Audio*
X3045000Y9295000D03*
G04 #@! TD*
G04 #@! TO.P,Pad7,1,Pin_1*
G04 #@! TO.N,Net-(JP1-Pad3)*
X85375000Y33050000D03*
G04 #@! TD*
G04 #@! TO.P,Pad10,1,Pin_1*
G04 #@! TO.N,/Color*
X62545000Y24795000D03*
G04 #@! TD*
G04 #@! TO.P,Pad9,1,Pin_1*
G04 #@! TO.N,Net-(JP2-Pad1)*
X27215000Y25430000D03*
G04 #@! TD*
G04 #@! TO.P,Pad5,1,Pin_1*
G04 #@! TO.N,/Lum1*
X87915000Y25430000D03*
G04 #@! TD*
G04 #@! TO.P,Pad4,1,Pin_1*
G04 #@! TO.N,/Audio*
X3045000Y24795000D03*
G04 #@! TD*
G04 #@! TO.P,Pad8,1,Pin_1*
G04 #@! TO.N,Net-(JP1-Pad1)*
X75215000Y17550000D03*
G04 #@! TD*
G04 #@! TO.P,Pad9,1,Pin_1*
G04 #@! TO.N,Net-(JP2-Pad1)*
X75215000Y9930000D03*
G04 #@! TD*
G04 #@! TO.P,Pad5,1,Pin_1*
G04 #@! TO.N,/Lum1*
X87915000Y40930000D03*
G04 #@! TD*
G04 #@! TO.P,Pad4,1,Pin_1*
G04 #@! TO.N,/Audio*
X3045000Y55795000D03*
G04 #@! TD*
G04 #@! TO.P,Pad11,1,Pin_1*
G04 #@! TO.N,GND*
X42455000Y48550000D03*
G04 #@! TD*
G04 #@! TO.P,Pad5,1,Pin_1*
G04 #@! TO.N,/Lum1*
X87915000Y9930000D03*
G04 #@! TD*
G04 #@! TO.P,Pad4,1,Pin_1*
G04 #@! TO.N,/Audio*
X3045000Y71295000D03*
G04 #@! TD*
G04 #@! TO.P,Pad8,1,Pin_1*
G04 #@! TO.N,Net-(JP1-Pad1)*
X75215000Y79550000D03*
G04 #@! TD*
G04 #@! TO.P,Pad6,1,Pin_1*
G04 #@! TO.N,/Sync*
X34835000Y9930000D03*
G04 #@! TD*
G04 #@! TO.P,Pad7,1,Pin_1*
G04 #@! TO.N,Net-(JP1-Pad3)*
X85375000Y64050000D03*
G04 #@! TD*
G04 #@! TO.P,Pad7,1,Pin_1*
G04 #@! TO.N,Net-(JP1-Pad3)*
X85375000Y48550000D03*
G04 #@! TD*
G04 #@! TO.P,Pad7,1,Pin_1*
G04 #@! TO.N,Net-(JP1-Pad3)*
X37375000Y33050000D03*
G04 #@! TD*
G04 #@! TO.P,Pad4,1,Pin_1*
G04 #@! TO.N,/Audio*
X3045000Y40295000D03*
G04 #@! TD*
G04 #@! TO.P,Pad7,1,Pin_1*
G04 #@! TO.N,Net-(JP1-Pad3)*
X85375000Y79550000D03*
G04 #@! TD*
G04 #@! TO.P,Pad6,1,Pin_1*
G04 #@! TO.N,/Sync*
X82835000Y25430000D03*
G04 #@! TD*
G04 #@! TO.P,Pad10,1,Pin_1*
G04 #@! TO.N,/Color*
X62545000Y40295000D03*
G04 #@! TD*
G04 #@! TO.P,Pad5,1,Pin_1*
G04 #@! TO.N,/Lum1*
X39915000Y56430000D03*
G04 #@! TD*
G04 #@! TO.P,Pad5,1,Pin_1*
G04 #@! TO.N,/Lum1*
X87915000Y71930000D03*
G04 #@! TD*
G04 #@! TO.P,Pad4,1,Pin_1*
G04 #@! TO.N,/Audio*
X51045000Y71295000D03*
G04 #@! TD*
G04 #@! TO.P,Pad6,1,Pin_1*
G04 #@! TO.N,/Sync*
X82835000Y71930000D03*
G04 #@! TD*
G04 #@! TO.P,Pad11,1,Pin_1*
G04 #@! TO.N,GND*
X42455000Y79550000D03*
G04 #@! TD*
G04 #@! TO.P,Pad4,1,Pin_1*
G04 #@! TO.N,/Audio*
X51045000Y40295000D03*
G04 #@! TD*
G04 #@! TO.P,Pad7,1,Pin_1*
G04 #@! TO.N,Net-(JP1-Pad3)*
X37375000Y17550000D03*
G04 #@! TD*
G04 #@! TO.P,Pad10,1,Pin_1*
G04 #@! TO.N,/Color*
X14545000Y71295000D03*
G04 #@! TD*
G04 #@! TO.P,Pad6,1,Pin_1*
G04 #@! TO.N,/Sync*
X34835000Y40930000D03*
G04 #@! TD*
G04 #@! TO.P,Pad11,1,Pin_1*
G04 #@! TO.N,GND*
X90455000Y33050000D03*
G04 #@! TD*
G04 #@! TO.P,Pad8,1,Pin_1*
G04 #@! TO.N,Net-(JP1-Pad1)*
X75215000Y48550000D03*
G04 #@! TD*
G04 #@! TO.P,Pad5,1,Pin_1*
G04 #@! TO.N,/Lum1*
X39915000Y71930000D03*
G04 #@! TD*
G04 #@! TO.P,Pad10,1,Pin_1*
G04 #@! TO.N,/Color*
X14545000Y55795000D03*
G04 #@! TD*
G04 #@! TO.P,Pad6,1,Pin_1*
G04 #@! TO.N,/Sync*
X82835000Y56430000D03*
G04 #@! TD*
G04 #@! TO.P,Pad8,1,Pin_1*
G04 #@! TO.N,Net-(JP1-Pad1)*
X27215000Y17550000D03*
G04 #@! TD*
G04 #@! TO.P,Pad5,1,Pin_1*
G04 #@! TO.N,/Lum1*
X39915000Y40930000D03*
G04 #@! TD*
G04 #@! TO.P,Pad6,1,Pin_1*
G04 #@! TO.N,/Sync*
X34835000Y71930000D03*
G04 #@! TD*
G04 #@! TO.P,Pad11,1,Pin_1*
G04 #@! TO.N,GND*
X90455000Y79550000D03*
G04 #@! TD*
G04 #@! TO.P,Pad5,1,Pin_1*
G04 #@! TO.N,/Lum1*
X39915000Y25430000D03*
G04 #@! TD*
G04 #@! TO.P,Pad4,1,Pin_1*
G04 #@! TO.N,/Audio*
X51045000Y9295000D03*
G04 #@! TD*
G04 #@! TO.P,Pad10,1,Pin_1*
G04 #@! TO.N,/Color*
X62545000Y55795000D03*
G04 #@! TD*
G04 #@! TO.P,Pad11,1,Pin_1*
G04 #@! TO.N,GND*
X90455000Y64050000D03*
G04 #@! TD*
G04 #@! TO.P,Pad5,1,Pin_1*
G04 #@! TO.N,/Lum1*
X87915000Y56430000D03*
G04 #@! TD*
G04 #@! TO.P,Pad10,1,Pin_1*
G04 #@! TO.N,/Color*
X14545000Y40295000D03*
G04 #@! TD*
G04 #@! TO.P,Pad9,1,Pin_1*
G04 #@! TO.N,Net-(JP2-Pad1)*
X27215000Y56430000D03*
G04 #@! TD*
G04 #@! TO.P,Pad11,1,Pin_1*
G04 #@! TO.N,GND*
X90455000Y17550000D03*
G04 #@! TD*
G04 #@! TO.P,Pad9,1,Pin_1*
G04 #@! TO.N,Net-(JP2-Pad1)*
X27215000Y71930000D03*
G04 #@! TD*
G04 #@! TO.P,Pad9,1,Pin_1*
G04 #@! TO.N,Net-(JP2-Pad1)*
X27215000Y9930000D03*
G04 #@! TD*
G04 #@! TO.P,Pad6,1,Pin_1*
G04 #@! TO.N,/Sync*
X82835000Y9930000D03*
G04 #@! TD*
G04 #@! TO.P,Pad8,1,Pin_1*
G04 #@! TO.N,Net-(JP1-Pad1)*
X27215000Y79550000D03*
G04 #@! TD*
G04 #@! TO.P,Pad10,1,Pin_1*
G04 #@! TO.N,/Color*
X14545000Y24795000D03*
G04 #@! TD*
G04 #@! TO.P,Pad9,1,Pin_1*
G04 #@! TO.N,Net-(JP2-Pad1)*
X75215000Y56430000D03*
G04 #@! TD*
G04 #@! TO.P,Pad9,1,Pin_1*
G04 #@! TO.N,Net-(JP2-Pad1)*
X75215000Y71930000D03*
G04 #@! TD*
G04 #@! TO.P,Pad8,1,Pin_1*
G04 #@! TO.N,Net-(JP1-Pad1)*
X75215000Y64050000D03*
G04 #@! TD*
G04 #@! TO.P,Pad6,1,Pin_1*
G04 #@! TO.N,/Sync*
X34835000Y25430000D03*
G04 #@! TD*
G04 #@! TO.P,Pad11,1,Pin_1*
G04 #@! TO.N,GND*
X42455000Y33050000D03*
G04 #@! TD*
G04 #@! TO.P,Pad7,1,Pin_1*
G04 #@! TO.N,Net-(JP1-Pad3)*
X37375000Y79550000D03*
G04 #@! TD*
G04 #@! TO.P,Pad7,1,Pin_1*
G04 #@! TO.N,Net-(JP1-Pad3)*
X37375000Y48550000D03*
G04 #@! TD*
G04 #@! TO.P,Pad9,1,Pin_1*
G04 #@! TO.N,Net-(JP2-Pad1)*
X75215000Y25430000D03*
G04 #@! TD*
G04 #@! TO.P,Pad9,1,Pin_1*
G04 #@! TO.N,Net-(JP2-Pad1)*
X75215000Y40930000D03*
G04 #@! TD*
G04 #@! TO.P,Pad5,1,Pin_1*
G04 #@! TO.N,/Lum1*
X39915000Y9930000D03*
G04 #@! TD*
G04 #@! TO.P,Pad8,1,Pin_1*
G04 #@! TO.N,Net-(JP1-Pad1)*
X27215000Y64050000D03*
G04 #@! TD*
G04 #@! TO.P,Pad10,1,Pin_1*
G04 #@! TO.N,/Color*
X14545000Y9295000D03*
G04 #@! TD*
G04 #@! TO.P,Pad11,1,Pin_1*
G04 #@! TO.N,GND*
X42455000Y17550000D03*
G04 #@! TD*
G04 #@! TO.P,Pad4,1,Pin_1*
G04 #@! TO.N,/Audio*
X51045000Y55795000D03*
G04 #@! TD*
G04 #@! TO.P,Pad6,1,Pin_1*
G04 #@! TO.N,/Sync*
X34835000Y56430000D03*
G04 #@! TD*
G04 #@! TO.P,Pad11,1,Pin_1*
G04 #@! TO.N,GND*
X90455000Y48550000D03*
G04 #@! TD*
G04 #@! TO.P,Pad10,1,Pin_1*
G04 #@! TO.N,/Color*
X62545000Y9295000D03*
G04 #@! TD*
G04 #@! TO.P,Pad8,1,Pin_1*
G04 #@! TO.N,Net-(JP1-Pad1)*
X27215000Y48550000D03*
G04 #@! TD*
G04 #@! TO.P,Pad6,1,Pin_1*
G04 #@! TO.N,/Sync*
X82835000Y40930000D03*
G04 #@! TD*
D11*
G04 #@! TO.N,/Lum0*
X69149000Y48423000D03*
X75977000Y46264000D03*
X21149000Y32923000D03*
X27977000Y46264000D03*
X27977000Y15264000D03*
X21149000Y17423000D03*
X21149000Y79423000D03*
X27977000Y77264000D03*
X75977000Y61764000D03*
X75977000Y15264000D03*
X69149000Y79423000D03*
X69149000Y17423000D03*
X75977000Y77264000D03*
X21149000Y63923000D03*
X27977000Y61764000D03*
X69149000Y63923000D03*
X75977000Y30764000D03*
X69149000Y32923000D03*
X27977000Y30764000D03*
X21149000Y48423000D03*
D12*
G04 #@! TO.N,GND*
X13499000Y15010000D03*
X13499000Y77010000D03*
X61499000Y46010000D03*
X13499000Y30510000D03*
X56797000Y55750000D03*
X56797000Y71250000D03*
X61499000Y30510000D03*
X8797000Y40250000D03*
X61499000Y77010000D03*
X8797000Y9250000D03*
X56797000Y24750000D03*
X13499000Y61510000D03*
X56797000Y9250000D03*
X8797000Y55750000D03*
X8797000Y71250000D03*
X13499000Y46010000D03*
X56797000Y40250000D03*
X61499000Y15010000D03*
X61499000Y61510000D03*
X8797000Y24750000D03*
D11*
G04 #@! TO.N,/Lum1*
X69149000Y75359000D03*
X21149000Y44359000D03*
X21149000Y28859000D03*
X69149000Y44359000D03*
X21149000Y59859000D03*
X21149000Y13359000D03*
X21149000Y75359000D03*
X69149000Y59859000D03*
X69149000Y28859000D03*
X69149000Y13359000D03*
G04 #@! TO.N,/Sync*
X21149000Y26827000D03*
X69149000Y42327000D03*
X21149000Y57827000D03*
X69149000Y11327000D03*
X69149000Y26827000D03*
X21149000Y73327000D03*
X21149000Y11327000D03*
X21149000Y42327000D03*
X69149000Y57827000D03*
X69149000Y73327000D03*
G04 #@! TD*
D13*
G04 #@! TO.N,/Lum0*
X23405000Y15264000D02*
X22389000Y16280000D01*
X69149000Y17423000D02*
X69246000Y17423000D01*
X75977000Y15264000D02*
X71405000Y15264000D01*
X71405000Y30764000D02*
X70389000Y31780000D01*
X69246000Y48423000D02*
X70389000Y47280000D01*
X71405000Y46264000D02*
X70389000Y47280000D01*
X21149000Y63923000D02*
X21246000Y63923000D01*
X23405000Y30764000D02*
X22389000Y31780000D01*
X21246000Y32923000D02*
X22389000Y31780000D01*
X21246000Y79423000D02*
X22389000Y78280000D01*
X71405000Y77264000D02*
X70389000Y78280000D01*
X75977000Y61764000D02*
X71405000Y61764000D01*
X75977000Y77264000D02*
X71405000Y77264000D01*
X69149000Y48423000D02*
X69246000Y48423000D01*
X69246000Y32923000D02*
X70389000Y31780000D01*
X69246000Y79423000D02*
X70389000Y78280000D01*
X27977000Y46264000D02*
X23405000Y46264000D01*
X23405000Y77264000D02*
X22389000Y78280000D01*
X27977000Y30764000D02*
X23405000Y30764000D01*
X21149000Y32923000D02*
X21246000Y32923000D01*
X21149000Y17423000D02*
X21246000Y17423000D01*
X27977000Y61764000D02*
X23405000Y61764000D01*
X69149000Y32923000D02*
X69246000Y32923000D01*
X23405000Y46264000D02*
X22389000Y47280000D01*
X71405000Y15264000D02*
X70389000Y16280000D01*
X27977000Y15264000D02*
X23405000Y15264000D01*
X27977000Y77264000D02*
X23405000Y77264000D01*
X75977000Y46264000D02*
X71405000Y46264000D01*
X71405000Y61764000D02*
X70389000Y62780000D01*
X21246000Y48423000D02*
X22389000Y47280000D01*
X21149000Y48423000D02*
X21246000Y48423000D01*
X75977000Y30764000D02*
X71405000Y30764000D01*
X69246000Y63923000D02*
X70389000Y62780000D01*
X21246000Y63923000D02*
X22389000Y62780000D01*
X21149000Y79423000D02*
X21246000Y79423000D01*
X69149000Y79423000D02*
X69246000Y79423000D01*
X69149000Y63923000D02*
X69246000Y63923000D01*
X69246000Y17423000D02*
X70389000Y16280000D01*
X23405000Y61764000D02*
X22389000Y62780000D01*
X21246000Y17423000D02*
X22389000Y16280000D01*
D14*
G04 #@! TO.N,GND*
X90455000Y15615000D02*
X88707000Y13867000D01*
X63531000Y30510000D02*
X61402000Y30510000D01*
X63531000Y15010000D02*
X61402000Y15010000D01*
X90455000Y62115000D02*
X88707000Y60367000D01*
X42455000Y48550000D02*
X42455000Y46615000D01*
X8797000Y72405000D02*
X8797000Y71250000D01*
X56797000Y25905000D02*
X56797000Y24750000D01*
X61402000Y61510000D02*
X56797000Y56905000D01*
X40707000Y13867000D02*
X22673000Y13867000D01*
X13402000Y46010000D02*
X8797000Y41405000D01*
X70673000Y60367000D02*
X69530000Y61510000D01*
X63531000Y77010000D02*
X61402000Y77010000D01*
X42455000Y17550000D02*
X42455000Y15615000D01*
X13402000Y61510000D02*
X8797000Y56905000D01*
X13402000Y15010000D02*
X8797000Y10405000D01*
X90455000Y64050000D02*
X90455000Y62115000D01*
X21530000Y15010000D02*
X15531000Y15010000D01*
X8797000Y41405000D02*
X8797000Y40250000D01*
X15531000Y15010000D02*
X13402000Y15010000D01*
X42455000Y33050000D02*
X42455000Y31115000D01*
X88707000Y44867000D02*
X70673000Y44867000D01*
X69530000Y61510000D02*
X63531000Y61510000D01*
X56797000Y10405000D02*
X56797000Y9250000D01*
X88707000Y13867000D02*
X70673000Y13867000D01*
X90455000Y77615000D02*
X88707000Y75867000D01*
X8797000Y10405000D02*
X8797000Y9250000D01*
X42455000Y46615000D02*
X40707000Y44867000D01*
X42455000Y64050000D02*
X42455000Y62115000D01*
X21530000Y46010000D02*
X15531000Y46010000D01*
X21530000Y61510000D02*
X15531000Y61510000D01*
X69530000Y77010000D02*
X63531000Y77010000D01*
X69530000Y30510000D02*
X63531000Y30510000D01*
X88707000Y75867000D02*
X70673000Y75867000D01*
X70673000Y13867000D02*
X69530000Y15010000D01*
X42455000Y79550000D02*
X42455000Y77615000D01*
X61402000Y46010000D02*
X56797000Y41405000D01*
X88707000Y29367000D02*
X70673000Y29367000D01*
X61402000Y30510000D02*
X56797000Y25905000D01*
X56797000Y56905000D02*
X56797000Y55750000D01*
X40707000Y44867000D02*
X22673000Y44867000D01*
X61402000Y77010000D02*
X56797000Y72405000D01*
X88707000Y60367000D02*
X70673000Y60367000D01*
X13402000Y77010000D02*
X8797000Y72405000D01*
X13402000Y30510000D02*
X8797000Y25905000D01*
X21530000Y77010000D02*
X15531000Y77010000D01*
X40707000Y29367000D02*
X22673000Y29367000D01*
X8797000Y25905000D02*
X8797000Y24750000D01*
X8797000Y56905000D02*
X8797000Y55750000D01*
X22673000Y60367000D02*
X21530000Y61510000D01*
X40707000Y75867000D02*
X22673000Y75867000D01*
X90455000Y48550000D02*
X90455000Y46615000D01*
X56797000Y72405000D02*
X56797000Y71250000D01*
X42455000Y77615000D02*
X40707000Y75867000D01*
X90455000Y31115000D02*
X88707000Y29367000D01*
X61402000Y15010000D02*
X56797000Y10405000D01*
X22673000Y44867000D02*
X21530000Y46010000D01*
X63531000Y46010000D02*
X61402000Y46010000D01*
X15531000Y30510000D02*
X13402000Y30510000D01*
X63531000Y61510000D02*
X61402000Y61510000D01*
X40707000Y60367000D02*
X22673000Y60367000D01*
X42455000Y31115000D02*
X40707000Y29367000D01*
X69530000Y46010000D02*
X63531000Y46010000D01*
X21530000Y30510000D02*
X15531000Y30510000D01*
X15531000Y77010000D02*
X13402000Y77010000D01*
X90455000Y46615000D02*
X88707000Y44867000D01*
X22673000Y75867000D02*
X21530000Y77010000D01*
X15531000Y46010000D02*
X13402000Y46010000D01*
X42455000Y62115000D02*
X40707000Y60367000D01*
X90455000Y79550000D02*
X90455000Y77615000D01*
X56797000Y41405000D02*
X56797000Y40250000D01*
X70673000Y44867000D02*
X69530000Y46010000D01*
X90455000Y17550000D02*
X90455000Y15615000D01*
X22673000Y13867000D02*
X21530000Y15010000D01*
X90455000Y33050000D02*
X90455000Y31115000D01*
X15531000Y61510000D02*
X13402000Y61510000D01*
X42455000Y15615000D02*
X40707000Y13867000D01*
X70673000Y75867000D02*
X69530000Y77010000D01*
X69530000Y15010000D02*
X63531000Y15010000D01*
X70673000Y29367000D02*
X69530000Y30510000D01*
X22673000Y29367000D02*
X21530000Y30510000D01*
D13*
G04 #@! TO.N,/Lum1*
X39153000Y43724000D02*
X24675000Y43724000D01*
X39915000Y9930000D02*
X39915000Y11962000D01*
X39915000Y42962000D02*
X39153000Y43724000D01*
X39153000Y74724000D02*
X24675000Y74724000D01*
X87915000Y73962000D02*
X87153000Y74724000D01*
X39915000Y58462000D02*
X39153000Y59224000D01*
X39153000Y28224000D02*
X24675000Y28224000D01*
X39915000Y11962000D02*
X39153000Y12724000D01*
X72675000Y12724000D02*
X70643000Y12724000D01*
X87915000Y11962000D02*
X87153000Y12724000D01*
X87915000Y40930000D02*
X87915000Y42962000D01*
X69149000Y13359000D02*
X69784000Y12724000D01*
X24675000Y59224000D02*
X22643000Y59224000D01*
X24675000Y12724000D02*
X22643000Y12724000D01*
X39915000Y56430000D02*
X39915000Y58462000D01*
X72675000Y74724000D02*
X70643000Y74724000D01*
X69784000Y28224000D02*
X70643000Y28224000D01*
X69149000Y59859000D02*
X69784000Y59224000D01*
X21784000Y74724000D02*
X22643000Y74724000D01*
X21784000Y59224000D02*
X22643000Y59224000D01*
X39915000Y71930000D02*
X39915000Y73962000D01*
X87915000Y58462000D02*
X87153000Y59224000D01*
X87915000Y9930000D02*
X87915000Y11962000D01*
X87153000Y43724000D02*
X72675000Y43724000D01*
X24675000Y28224000D02*
X22643000Y28224000D01*
X87915000Y71930000D02*
X87915000Y73962000D01*
X69149000Y28859000D02*
X69784000Y28224000D01*
X72675000Y43724000D02*
X70643000Y43724000D01*
X87915000Y56430000D02*
X87915000Y58462000D01*
X69784000Y12724000D02*
X70643000Y12724000D01*
X24675000Y43724000D02*
X22643000Y43724000D01*
X21149000Y28859000D02*
X21784000Y28224000D01*
X69784000Y74724000D02*
X70643000Y74724000D01*
X69149000Y44359000D02*
X69784000Y43724000D01*
X39153000Y12724000D02*
X24675000Y12724000D01*
X21149000Y44359000D02*
X21784000Y43724000D01*
X39915000Y25430000D02*
X39915000Y27462000D01*
X69149000Y75359000D02*
X69784000Y74724000D01*
X39915000Y73962000D02*
X39153000Y74724000D01*
X69784000Y59224000D02*
X70643000Y59224000D01*
X39153000Y59224000D02*
X24675000Y59224000D01*
X87915000Y42962000D02*
X87153000Y43724000D01*
X87153000Y28224000D02*
X72675000Y28224000D01*
X21149000Y13359000D02*
X21784000Y12724000D01*
X24675000Y74724000D02*
X22643000Y74724000D01*
X87153000Y59224000D02*
X72675000Y59224000D01*
X72675000Y59224000D02*
X70643000Y59224000D01*
X72675000Y28224000D02*
X70643000Y28224000D01*
X87153000Y12724000D02*
X72675000Y12724000D01*
X69784000Y43724000D02*
X70643000Y43724000D01*
X39915000Y27462000D02*
X39153000Y28224000D01*
X39915000Y40930000D02*
X39915000Y42962000D01*
X21784000Y28224000D02*
X22643000Y28224000D01*
X87915000Y27462000D02*
X87153000Y28224000D01*
X21149000Y75359000D02*
X21784000Y74724000D01*
X87153000Y74724000D02*
X72675000Y74724000D01*
X21784000Y43724000D02*
X22643000Y43724000D01*
X87915000Y25430000D02*
X87915000Y27462000D01*
X21784000Y12724000D02*
X22643000Y12724000D01*
X21149000Y59859000D02*
X21784000Y59224000D01*
G04 #@! TO.N,/Sync*
X70643000Y73962000D02*
X82073000Y73962000D01*
X70008000Y73327000D02*
X70643000Y73962000D01*
X70008000Y57827000D02*
X70643000Y58462000D01*
X22008000Y73327000D02*
X22643000Y73962000D01*
X34073000Y58462000D02*
X34835000Y57700000D01*
X70008000Y42327000D02*
X70643000Y42962000D01*
X34835000Y73200000D02*
X34835000Y71930000D01*
X82073000Y27462000D02*
X82835000Y26700000D01*
X21149000Y57827000D02*
X22008000Y57827000D01*
X21149000Y26827000D02*
X22008000Y26827000D01*
X82073000Y42962000D02*
X82835000Y42200000D01*
X69149000Y57827000D02*
X70008000Y57827000D01*
X21149000Y11327000D02*
X22008000Y11327000D01*
X22643000Y27462000D02*
X34073000Y27462000D01*
X22008000Y11327000D02*
X22643000Y11962000D01*
X82073000Y11962000D02*
X82835000Y11200000D01*
X70643000Y58462000D02*
X82073000Y58462000D01*
X69149000Y42327000D02*
X70008000Y42327000D01*
X34073000Y73962000D02*
X34835000Y73200000D01*
X34073000Y11962000D02*
X34835000Y11200000D01*
X34835000Y57700000D02*
X34835000Y56430000D01*
X69149000Y73327000D02*
X70008000Y73327000D01*
X70008000Y11327000D02*
X70643000Y11962000D01*
X82835000Y26700000D02*
X82835000Y25430000D01*
X69149000Y11327000D02*
X70008000Y11327000D01*
X70643000Y27462000D02*
X82073000Y27462000D01*
X22008000Y57827000D02*
X22643000Y58462000D01*
X82835000Y73200000D02*
X82835000Y71930000D01*
X22008000Y26827000D02*
X22643000Y27462000D01*
X82073000Y58462000D02*
X82835000Y57700000D01*
X34073000Y42962000D02*
X34835000Y42200000D01*
X22643000Y11962000D02*
X34073000Y11962000D01*
X70643000Y11962000D02*
X82073000Y11962000D01*
X70643000Y42962000D02*
X82073000Y42962000D01*
X22643000Y58462000D02*
X34073000Y58462000D01*
X34073000Y27462000D02*
X34835000Y26700000D01*
X34835000Y26700000D02*
X34835000Y25430000D01*
X21149000Y73327000D02*
X22008000Y73327000D01*
X21149000Y42327000D02*
X22008000Y42327000D01*
X69149000Y26827000D02*
X70008000Y26827000D01*
X34835000Y11200000D02*
X34835000Y9930000D01*
X22643000Y42962000D02*
X34073000Y42962000D01*
X82835000Y57700000D02*
X82835000Y56430000D01*
X34835000Y42200000D02*
X34835000Y40930000D01*
X82835000Y42200000D02*
X82835000Y40930000D01*
X82073000Y73962000D02*
X82835000Y73200000D01*
X82835000Y11200000D02*
X82835000Y9930000D01*
X70008000Y26827000D02*
X70643000Y27462000D01*
X22643000Y73962000D02*
X34073000Y73962000D01*
X22008000Y42327000D02*
X22643000Y42962000D01*
G04 #@! TD*
M02*
